<?xml version="1.0" encoding="UTF-8" standalone="no"?>
<!-- Created with Inkscape (http://www.inkscape.org/) -->

<svg
   xmlns:dc="http://purl.org/dc/elements/1.1/"
   xmlns:cc="http://creativecommons.org/ns#"
   xmlns:rdf="http://www.w3.org/1999/02/22-rdf-syntax-ns#"
   xmlns:svg="http://www.w3.org/2000/svg"
   xmlns="http://www.w3.org/2000/svg"
   xmlns:sodipodi="http://sodipodi.sourceforge.net/DTD/sodipodi-0.dtd"
   xmlns:inkscape="http://www.inkscape.org/namespaces/inkscape"
   version="1.1"
   id="svg2"
   xml:space="preserve"
   width="793.70001"
   height="793.70001"
   viewBox="0 0 793.70003 793.70001"
   sodipodi:docname="default.svg"
   inkscape:version="0.92.2 (5c3e80d, 2017-08-06)"><metadata
     id="metadata8"><rdf:RDF><cc:Work
         rdf:about=""><dc:format>image/svg+xml</dc:format><dc:type
           rdf:resource="http://purl.org/dc/dcmitype/StillImage" /><dc:title></dc:title></cc:Work></rdf:RDF></metadata><defs
     id="defs6"><linearGradient
       x1="0"
       y1="0"
       x2="1"
       y2="0"
       gradientUnits="userSpaceOnUse"
       gradientTransform="matrix(129.33092,-129.33095,-129.33095,-129.33092,364.53271,225.96484)"
       spreadMethod="pad"
       id="linearGradient30"><stop
         style="stop-opacity:1;stop-color:#5eb6d9"
         offset="0"
         id="stop24" /><stop
         style="stop-opacity:1;stop-color:#005a8d"
         offset="0.895599"
         id="stop26" /><stop
         style="stop-opacity:1;stop-color:#005a8d"
         offset="1"
         id="stop28" /></linearGradient><linearGradient
       x1="0"
       y1="0"
       x2="1"
       y2="0"
       gradientUnits="userSpaceOnUse"
       gradientTransform="matrix(117.52774,-117.52776,-117.52776,-117.52774,370.43506,220.06445)"
       spreadMethod="pad"
       id="linearGradient52"><stop
         style="stop-opacity:1;stop-color:#6bc1ec"
         offset="0"
         id="stop46" /><stop
         style="stop-opacity:1;stop-color:#0080c6"
         offset="0.895599"
         id="stop48" /><stop
         style="stop-opacity:1;stop-color:#0080c6"
         offset="1"
         id="stop50" /></linearGradient><clipPath
       clipPathUnits="userSpaceOnUse"
       id="clipPath62"><path
         d="M 0,595.275 H 841.889 V 0 H 0 Z"
         id="path60"
         inkscape:connector-curvature="0" /></clipPath><clipPath
       clipPathUnits="userSpaceOnUse"
       id="clipPath70"><path
         d="M 316.968,273.848 H 470.283 V 54.5889 H 316.968 Z"
         id="path68"
         inkscape:connector-curvature="0" /></clipPath><linearGradient
       x1="0"
       y1="0"
       x2="1"
       y2="0"
       gradientUnits="userSpaceOnUse"
       gradientTransform="matrix(-134.0498,-104.73119,-104.73119,134.0498,487.76318,215.24316)"
       spreadMethod="pad"
       id="linearGradient80"><stop
         style="stop-opacity:1;stop-color:#d7d9da"
         offset="0"
         id="stop76" /><stop
         style="stop-opacity:1;stop-color:#231f20"
         offset="1"
         id="stop78" /></linearGradient><linearGradient
       x1="0"
       y1="0"
       x2="1"
       y2="0"
       gradientUnits="userSpaceOnUse"
       gradientTransform="matrix(-129.33232,129.33231,129.33231,129.33232,633.21436,235.98437)"
       spreadMethod="pad"
       id="linearGradient116"><stop
         style="stop-opacity:1;stop-color:#12851c"
         offset="0"
         id="stop108" /><stop
         style="stop-opacity:1;stop-color:#12851c"
         offset="0.170334"
         id="stop110" /><stop
         style="stop-opacity:1;stop-color:#bcd749"
         offset="0.989014"
         id="stop112" /><stop
         style="stop-opacity:1;stop-color:#bcd749"
         offset="1"
         id="stop114" /></linearGradient><linearGradient
       x1="0"
       y1="0"
       x2="1"
       y2="0"
       gradientUnits="userSpaceOnUse"
       gradientTransform="matrix(-117.52776,117.52774,117.52774,117.52776,627.31299,241.8877)"
       spreadMethod="pad"
       id="linearGradient140"><stop
         style="stop-opacity:1;stop-color:#55aa40"
         offset="0"
         id="stop132" /><stop
         style="stop-opacity:1;stop-color:#55aa40"
         offset="0.170334"
         id="stop134" /><stop
         style="stop-opacity:1;stop-color:#bcd749"
         offset="0.989014"
         id="stop136" /><stop
         style="stop-opacity:1;stop-color:#bcd749"
         offset="1"
         id="stop138" /></linearGradient><clipPath
       clipPathUnits="userSpaceOnUse"
       id="clipPath150"><path
         d="M 0,595.275 H 841.889 V 0 H 0 Z"
         id="path148"
         inkscape:connector-curvature="0" /></clipPath><clipPath
       clipPathUnits="userSpaceOnUse"
       id="clipPath158"><path
         d="M 456.32,413.2 H 609.633 V 193.94 H 456.32 Z"
         id="path156"
         inkscape:connector-curvature="0" /></clipPath><linearGradient
       x1="0"
       y1="0"
       x2="1"
       y2="0"
       gradientUnits="userSpaceOnUse"
       gradientTransform="matrix(-134.0498,-104.73119,-104.73119,134.0498,627.11475,354.59521)"
       spreadMethod="pad"
       id="linearGradient168"><stop
         style="stop-opacity:1;stop-color:#d7d9da"
         offset="0"
         id="stop164" /><stop
         style="stop-opacity:1;stop-color:#231f20"
         offset="1"
         id="stop166" /></linearGradient><linearGradient
       x1="0"
       y1="0"
       x2="1"
       y2="0"
       gradientUnits="userSpaceOnUse"
       gradientTransform="matrix(-129.33578,129.33575,129.33575,129.33578,493.86377,375.33691)"
       spreadMethod="pad"
       id="linearGradient202"><stop
         style="stop-opacity:1;stop-color:#bc0a80"
         offset="0"
         id="stop196" /><stop
         style="stop-opacity:1;stop-color:#bc0a80"
         offset="0.00480652"
         id="stop198" /><stop
         style="stop-opacity:1;stop-color:#d958a0"
         offset="1"
         id="stop200" /></linearGradient><linearGradient
       x1="0"
       y1="0"
       x2="1"
       y2="0"
       gradientUnits="userSpaceOnUse"
       gradientTransform="matrix(-117.53052,117.5305,117.5305,117.53053,487.96045,381.23975)"
       spreadMethod="pad"
       id="linearGradient224"><stop
         style="stop-opacity:1;stop-color:#bc0a80"
         offset="0"
         id="stop218" /><stop
         style="stop-opacity:1;stop-color:#bc0a80"
         offset="0.00480652"
         id="stop220" /><stop
         style="stop-opacity:1;stop-color:#d958a0"
         offset="1"
         id="stop222" /></linearGradient><clipPath
       clipPathUnits="userSpaceOnUse"
       id="clipPath234"><path
         d="M 0,595.275 H 841.889 V 0 H 0 Z"
         id="path232"
         inkscape:connector-curvature="0" /></clipPath><clipPath
       clipPathUnits="userSpaceOnUse"
       id="clipPath242"><path
         d="m 316.968,552.552 h 153.31 v -219.26 h -153.31 z"
         id="path240"
         inkscape:connector-curvature="0" /></clipPath><linearGradient
       x1="0"
       y1="0"
       x2="1"
       y2="0"
       gradientUnits="userSpaceOnUse"
       gradientTransform="matrix(-134.04826,-104.73,-104.73,134.04826,487.76221,493.94824)"
       spreadMethod="pad"
       id="linearGradient252"><stop
         style="stop-opacity:1;stop-color:#d7d9da"
         offset="0"
         id="stop248" /><stop
         style="stop-opacity:1;stop-color:#231f20"
         offset="1"
         id="stop250" /></linearGradient><linearGradient
       x1="0"
       y1="0"
       x2="1"
       y2="0"
       gradientUnits="userSpaceOnUse"
       gradientTransform="matrix(-129.3344,129.33438,129.33438,129.3344,354.51221,235.98535)"
       spreadMethod="pad"
       id="linearGradient286"><stop
         style="stop-opacity:1;stop-color:#434345"
         offset="0"
         id="stop280" /><stop
         style="stop-opacity:1;stop-color:#434345"
         offset="0.00480652"
         id="stop282" /><stop
         style="stop-opacity:1;stop-color:#999b9d"
         offset="1"
         id="stop284" /></linearGradient><linearGradient
       x1="0"
       y1="0"
       x2="1"
       y2="0"
       gradientUnits="userSpaceOnUse"
       gradientTransform="matrix(-117.53052,117.5305,117.5305,117.53053,348.60889,241.88867)"
       spreadMethod="pad"
       id="linearGradient308"><stop
         style="stop-opacity:1;stop-color:#434345"
         offset="0"
         id="stop302" /><stop
         style="stop-opacity:1;stop-color:#434345"
         offset="0.00480652"
         id="stop304" /><stop
         style="stop-opacity:1;stop-color:#999b9d"
         offset="1"
         id="stop306" /></linearGradient><clipPath
       clipPathUnits="userSpaceOnUse"
       id="clipPath318"><path
         d="M 0,595.275 H 841.889 V 0 H 0 Z"
         id="path316"
         inkscape:connector-curvature="0" /></clipPath><clipPath
       clipPathUnits="userSpaceOnUse"
       id="clipPath326"><path
         d="m 177.616,413.201 h 153.31 V 193.94 h -153.31 z"
         id="path324"
         inkscape:connector-curvature="0" /></clipPath><linearGradient
       x1="0"
       y1="0"
       x2="1"
       y2="0"
       gradientUnits="userSpaceOnUse"
       gradientTransform="matrix(-134.04749,-104.72939,-104.72939,134.04749,348.40967,354.5957)"
       spreadMethod="pad"
       id="linearGradient336"><stop
         style="stop-opacity:1;stop-color:#d7d9da"
         offset="0"
         id="stop332" /><stop
         style="stop-opacity:1;stop-color:#231f20"
         offset="1"
         id="stop334" /></linearGradient></defs><sodipodi:namedview
     pagecolor="#ffffff"
     bordercolor="#666666"
     borderopacity="1"
     objecttolerance="10"
     gridtolerance="10"
     guidetolerance="10"
     inkscape:pageopacity="0"
     inkscape:pageshadow="2"
     inkscape:window-width="1920"
     inkscape:window-height="1017"
     id="namedview4"
     showgrid="false"
     inkscape:zoom="0.29734156"
     inkscape:cx="561.25934"
     inkscape:cy="396.85001"
     inkscape:window-x="-8"
     inkscape:window-y="-8"
     inkscape:window-maximized="1"
     inkscape:current-layer="g10" /><g
     id="g10"
     inkscape:groupmode="layer"
     inkscape:label="default_icon"
     transform="matrix(1.3333333,0,0,-1.3333333,0,793.7)"><g
       id="g4930"
       transform="translate(-131.55855,-3.0170004)"><g
         id="g12"><g
           id="g14"><g
             id="g20"><g
               id="g22"><path
                 inkscape:connector-curvature="0"
                 id="path32"
                 style="fill:url(#linearGradient30);stroke:none"
                 d="m 421.003,282.435 -112.94,-112.94 c -4.529,-4.527 -4.526,-11.865 0,-16.392 v 0 L 421.003,40.167 c 4.525,-4.528 11.865,-4.528 16.392,0 v 0 l 112.936,112.936 c 4.529,4.527 4.529,11.869 0,16.392 v 0 l -112.936,112.94 c -2.265,2.263 -5.231,3.396 -8.198,3.396 v 0 c -2.965,-0.001 -5.931,-1.132 -8.194,-3.396" /></g></g></g></g><g
         id="g34"><g
           id="g36"><g
             id="g42"><g
               id="g44"><path
                 inkscape:connector-curvature="0"
                 id="path54"
                 style="fill:url(#linearGradient52);stroke:none"
                 d="M 426.905,276.535 313.965,163.594 c -1.264,-1.26 -1.264,-3.32 0,-4.589 v 0 L 426.905,46.068 c 1.265,-1.268 3.324,-1.268 4.588,0 v 0 L 544.43,159.005 c 1.268,1.264 1.268,3.325 0,4.589 v 0 L 431.493,276.535 c -0.634,0.631 -1.466,0.947 -2.297,0.947 v 0 c -0.831,0 -1.661,-0.316 -2.291,-0.947" /></g></g></g></g><g
         id="g56"><g
           clip-path="url(#clipPath62)"
           id="g58"><g
             id="g64"><g
               id="g66" /><g
               id="g94"><g
                 style="opacity:0.41999799"
                 id="g92"
                 clip-path="url(#clipPath70)"><g
                   id="g90"><g
                     id="g88"><g
                       id="g86"><g
                         id="g84"><path
                           inkscape:connector-curvature="0"
                           id="path82"
                           style="fill:url(#linearGradient80);stroke:none"
                           d="m 448.353,219.771 c 6.797,6.796 14.163,12.72 21.93,17.846 l -32.933,32.935 c -4.307,4.303 -11.201,4.406 -15.378,0.228 L 320.036,168.846 c -4.177,-4.181 -4.076,-11.075 0.226,-15.38 l 98.88,-98.877 c -23.283,56.914 -13.989,121.983 29.211,165.182" /></g></g></g></g></g></g></g></g></g><g
         id="g96"><g
           id="g98"><g
             id="g104"><g
               id="g106"><path
                 inkscape:connector-curvature="0"
                 id="path118"
                 style="fill:url(#linearGradient116);stroke:none"
                 d="M 560.356,421.789 447.413,308.848 c -4.527,-4.529 -4.524,-11.864 0,-16.393 v 0 L 560.356,179.518 c 4.524,-4.526 11.863,-4.526 16.391,0 v 0 l 112.937,112.937 c 4.528,4.529 4.528,11.868 0,16.393 v 0 L 576.747,421.789 c -2.264,2.263 -5.23,3.395 -8.197,3.395 v 0 c -2.965,0 -5.931,-1.132 -8.194,-3.395" /></g></g></g></g><g
         id="g120"><g
           id="g122"><g
             id="g128"><g
               id="g130"><path
                 inkscape:connector-curvature="0"
                 id="path142"
                 style="fill:url(#linearGradient140);stroke:none"
                 d="m 566.256,415.886 -112.94,-112.94 c -1.265,-1.261 -1.265,-3.322 0,-4.589 v 0 l 112.94,-112.935 c 1.264,-1.268 3.325,-1.268 4.589,0 v 0 l 112.936,112.935 c 1.269,1.263 1.269,3.325 0,4.589 v 0 l -112.936,112.94 c -0.634,0.633 -1.465,0.95 -2.296,0.949 v 0 c -0.831,0 -1.662,-0.316 -2.293,-0.949" /></g></g></g></g><g
         id="g144"><g
           clip-path="url(#clipPath150)"
           id="g146"><g
             id="g152"><g
               id="g154" /><g
               id="g182"><g
                 style="opacity:0.41999799"
                 id="g180"
                 clip-path="url(#clipPath158)"><g
                   id="g178"><g
                     id="g176"><g
                       id="g174"><g
                         id="g172"><path
                           inkscape:connector-curvature="0"
                           id="path170"
                           style="fill:url(#linearGradient168);stroke:none"
                           d="m 587.706,359.123 c 6.796,6.796 14.162,12.724 21.927,17.848 l -32.931,32.934 c -4.306,4.304 -11.2,4.404 -15.382,0.226 L 459.388,308.198 c -4.179,-4.18 -4.075,-11.075 0.226,-15.38 l 98.881,-98.878 c -23.284,56.914 -13.99,121.983 29.211,165.183" /></g></g></g></g></g></g></g></g></g><g
         id="g184"><g
           id="g186"><g
             id="g192"><g
               id="g194"><path
                 inkscape:connector-curvature="0"
                 id="path204"
                 style="fill:url(#linearGradient202);stroke:none"
                 d="M 420.999,561.142 308.058,448.204 c -4.529,-4.528 -4.524,-11.867 0,-16.393 v 0 L 421.003,318.87 c 4.521,-4.523 11.865,-4.527 16.392,0 v 0 l 112.936,112.939 c 4.529,4.528 4.526,11.868 0,16.393 v 0 l -112.94,112.94 c -2.262,2.264 -5.228,3.396 -8.195,3.396 v 0 c -2.966,0 -5.933,-1.132 -8.197,-3.396" /></g></g></g></g><g
         id="g206"><g
           id="g208"><g
             id="g214"><g
               id="g216"><path
                 inkscape:connector-curvature="0"
                 id="path226"
                 style="fill:url(#linearGradient224);stroke:none"
                 d="M 426.901,555.239 313.96,442.301 c -1.259,-1.264 -1.264,-3.322 0,-4.588 v 0 l 112.945,-112.94 c 1.265,-1.268 3.32,-1.264 4.588,0 v 0 L 544.43,437.711 c 1.263,1.264 1.268,3.322 0,4.589 v 0 L 431.49,555.239 c -0.632,0.633 -1.463,0.95 -2.294,0.95 v 0 c -0.832,-10e-4 -1.663,-0.317 -2.295,-0.95" /></g></g></g></g><g
         id="g228"><g
           clip-path="url(#clipPath234)"
           id="g230"><g
             id="g236"><g
               id="g238" /><g
               id="g266"><g
                 style="opacity:0.41999799"
                 id="g264"
                 clip-path="url(#clipPath242)"><g
                   id="g262"><g
                     id="g260"><g
                       id="g258"><g
                         id="g256"><path
                           inkscape:connector-curvature="0"
                           id="path254"
                           style="fill:url(#linearGradient252);stroke:none"
                           d="m 448.353,498.476 c 6.797,6.798 14.159,12.724 21.925,17.849 l -32.932,32.934 c -4.303,4.302 -11.197,4.402 -15.378,0.224 L 320.036,447.55 c -4.177,-4.178 -4.076,-11.076 0.226,-15.377 l 98.877,-98.881 c -23.28,56.913 -13.986,121.983 29.214,165.184" /></g></g></g></g></g></g></g></g></g><g
         id="g268"><g
           id="g270"><g
             id="g276"><g
               id="g278"><path
                 inkscape:connector-curvature="0"
                 id="path288"
                 style="fill:url(#linearGradient286);stroke:none"
                 d="M 281.647,421.79 168.707,308.85 c -4.528,-4.527 -4.525,-11.866 0,-16.391 v 0 L 281.65,179.518 c 4.521,-4.525 11.864,-4.526 16.393,0 v 0 L 410.98,292.455 c 4.528,4.529 4.526,11.872 0,16.393 v 0 L 298.039,421.79 c -2.262,2.264 -5.229,3.396 -8.196,3.396 v 0 c -2.966,0 -5.932,-1.132 -8.196,-3.396" /></g></g></g></g><g
         id="g290"><g
           id="g292"><g
             id="g298"><g
               id="g300"><path
                 inkscape:connector-curvature="0"
                 id="path310"
                 style="fill:url(#linearGradient308);stroke:none"
                 d="M 287.549,415.889 174.609,302.948 c -1.261,-1.263 -1.265,-3.324 0,-4.586 v 0 l 112.944,-112.94 c 1.264,-1.268 3.32,-1.265 4.588,0 v 0 l 112.937,112.935 c 1.265,1.267 1.268,3.325 0,4.589 v 0 L 292.137,415.889 c -0.632,0.633 -1.462,0.949 -2.293,0.948 v 0 c -0.831,0 -1.663,-0.316 -2.295,-0.948" /></g></g></g></g><g
         id="g312"><g
           clip-path="url(#clipPath318)"
           id="g314"><g
             id="g320"><g
               id="g322" /><g
               id="g350"><g
                 style="opacity:0.41999799"
                 id="g348"
                 clip-path="url(#clipPath326)"><g
                   id="g346"><g
                     id="g344"><g
                       id="g342"><g
                         id="g340"><path
                           inkscape:connector-curvature="0"
                           id="path338"
                           style="fill:url(#linearGradient336);stroke:none"
                           d="m 309.002,359.123 c 6.796,6.796 14.158,12.726 21.924,17.85 l -32.932,32.935 c -4.301,4.301 -11.196,4.401 -15.374,0.225 L 180.684,308.198 c -4.177,-4.18 -4.076,-11.075 0.226,-15.377 l 98.876,-98.881 c -23.279,56.914 -13.985,121.983 29.216,165.183" /></g></g></g></g></g></g></g></g></g></g></g></svg>